<svg width="33" height="42" viewBox="0 0 33 42" fill="none" xmlns="http://www.w3.org/2000/svg">
<path d="M16.5001 42C19.4773 39.4867 22.2369 36.7313 24.75 33.7627C28.5214 29.3046 33 22.6653 33 16.3386C33.0033 9.73093 28.9829 3.77246 22.8147 1.24367C16.6465 -1.28513 9.54639 0.1142 4.82757 4.78867C1.72451 7.84613 -0.0137716 12.0051 8.01086e-05 16.3386C8.01086e-05 22.6653 4.47871 29.3046 8.25012 33.7627C10.7633 36.7313 13.5229 39.4867 16.5001 42ZM16.5001 4.67436C23.0059 4.68208 28.2779 9.89983 28.2857 16.3386C28.2857 19.0587 27.0435 23.7688 21.1318 30.7697C19.6748 32.4914 18.1288 34.1375 16.5001 35.7013C14.8712 34.1394 13.3245 32.4956 11.866 30.7767C5.95663 23.7664 4.71443 19.0564 4.71443 16.3386C4.72222 9.89983 9.99427 4.68208 16.5001 4.67436ZM16.5001 23.3372C20.4055 23.3372 23.5715 20.2038 23.5715 16.3386C23.5715 12.4734 20.4055 9.34007 16.5001 9.34007C12.5947 9.34007 9.42869 12.4734 9.42869 16.3386C9.42869 18.1948 10.1737 19.9749 11.4998 21.2874C12.826 22.5998 14.6246 23.3372 16.5001 23.3372Z" fill="#F26C4F"/>
</svg>
